<svg width="32" height="31" viewBox="0 0 32 31" fill="none" xmlns="http://www.w3.org/2000/svg">
<path d="M26.0476 3.8667H5.41897C5.07877 3.86923 4.75322 4.00549 4.51266 4.24606C4.2721 4.48662 4.13583 4.81217 4.1333 5.15237V25.781C4.13583 26.1212 4.2721 26.4468 4.51266 26.6873C4.75322 26.9279 5.07877 27.0642 5.41897 27.0667H16.526V18.096H13.51V14.587H16.526V12.006C16.526 9.00937 18.353 7.3757 21.0403 7.3757C21.9393 7.3757 22.8383 7.3757 23.7373 7.51103V10.6334H21.891C20.4313 10.6334 20.151 11.3294 20.151 12.3444V14.5774H23.631L23.1766 18.0864H20.151V27.0667H26.0476C26.3878 27.0642 26.7134 26.9279 26.9539 26.6873C27.1945 26.4468 27.3308 26.1212 27.3333 25.781V5.15237C27.3308 4.81217 27.1945 4.48662 26.9539 4.24606C26.7134 4.00549 26.3878 3.86923 26.0476 3.8667Z" fill="white"/>
</svg>
