<svg width="32" height="31" viewBox="0 0 32 31" fill="none" xmlns="http://www.w3.org/2000/svg">
<path fill-rule="evenodd" clip-rule="evenodd" d="M20.6873 6.02449C19.4641 5.96862 19.0972 5.95683 15.9999 5.95683V5.95673C12.9026 5.95673 12.5357 5.96862 11.3125 6.0244C10.5769 6.03315 9.84834 6.16826 9.15851 6.42382C8.65825 6.61686 8.20394 6.91247 7.82479 7.29164C7.44563 7.67081 7.15004 8.12514 6.95703 8.62541C6.70146 9.31523 6.56636 10.0438 6.5576 10.7794C6.50173 12.0026 6.48993 12.3695 6.48993 15.4668C6.48993 18.5641 6.50182 18.931 6.5576 20.1542C6.56636 20.8898 6.70146 21.6184 6.95703 22.3082C7.15005 22.8084 7.44565 23.2627 7.8248 23.6419C8.20395 24.021 8.65826 24.3166 9.15851 24.5097C9.84834 24.7652 10.5769 24.9003 11.3125 24.9091C12.5356 24.965 12.9023 24.9768 15.9999 24.9768C19.0975 24.9768 19.4642 24.9649 20.6873 24.9091C21.4229 24.9003 22.1515 24.7652 22.8413 24.5097C23.3415 24.3166 23.7959 24.021 24.175 23.6419C24.5542 23.2627 24.8498 22.8084 25.0428 22.3082C25.2983 21.6184 25.4335 20.8898 25.4422 20.1542C25.4981 18.931 25.5099 18.5641 25.5099 15.4668C25.5099 12.3695 25.498 12.0026 25.4422 10.7794C25.4335 10.0438 25.2983 9.31523 25.0428 8.62541C24.8498 8.12516 24.5542 7.67085 24.175 7.29169C23.7959 6.91254 23.3415 6.61695 22.8413 6.42392C22.1515 6.16836 21.4229 6.03325 20.6873 6.02449ZM11.2172 3.93649C12.4545 3.88004 12.8495 3.8667 15.9999 3.8667C19.1503 3.8667 19.5453 3.88004 20.7821 3.93698C21.7444 3.95625 22.6965 4.13857 23.5979 4.47618C24.3685 4.77417 25.0684 5.22986 25.6527 5.81407C26.237 6.39827 26.6928 7.0981 26.9909 7.8687C27.3285 8.76992 27.5108 9.72185 27.5301 10.684C27.5866 11.9213 27.5999 12.3163 27.5999 15.4667C27.5999 18.6171 27.5866 19.0121 27.5306 20.2489C27.5113 21.2112 27.329 22.1633 26.9914 23.0647C26.6933 23.8354 26.2376 24.5353 25.6533 25.1196C25.069 25.7039 24.3691 26.1597 23.5984 26.4577C22.697 26.7953 21.7449 26.9776 20.7826 26.9969C19.5453 27.0534 19.1503 27.0667 15.9999 27.0667C12.8495 27.0667 12.4545 27.0534 11.2177 26.9974C10.2554 26.9781 9.30327 26.7958 8.4019 26.4582C7.63121 26.1601 6.93129 25.7044 6.347 25.1201C5.76271 24.5358 5.30694 23.8359 5.0089 23.0652C4.67129 22.1638 4.48897 21.2117 4.4697 20.2494C4.41324 19.0121 4.3999 18.6171 4.3999 15.4667C4.3999 12.3163 4.41324 11.9213 4.4697 10.6845C4.48896 9.72217 4.67128 8.77007 5.0089 7.8687C5.30694 7.09801 5.76271 6.39809 6.347 5.8138C6.93129 5.22951 7.63121 4.77374 8.4019 4.4757C9.30312 4.13813 10.2551 3.95581 11.2172 3.93649ZM22.1919 10.6665C22.9607 10.6665 23.5839 10.0433 23.5839 9.27449C23.5839 8.50571 22.9607 7.88249 22.1919 7.88249C21.4232 7.88249 20.7999 8.50571 20.7999 9.27449C20.7999 10.0433 21.4232 10.6665 22.1919 10.6665ZM15.9999 9.50996C14.8217 9.50996 13.67 9.85932 12.6904 10.5139C11.7108 11.1684 10.9473 12.0987 10.4965 13.1872C10.0456 14.2757 9.92767 15.4734 10.1575 16.6289C10.3874 17.7844 10.9547 18.8458 11.7878 19.6788C12.6208 20.5119 13.6822 21.0792 14.8377 21.3091C15.9932 21.5389 17.191 21.421 18.2794 20.9701C19.3679 20.5193 20.2982 19.7558 20.9527 18.7762C21.6073 17.7966 21.9566 16.6449 21.9566 15.4668C21.9566 13.8869 21.3291 12.3718 20.2119 11.2547C19.0948 10.1376 17.5797 9.50996 15.9999 9.50996ZM15.9999 19.3334C15.2351 19.3334 14.4875 19.1066 13.8516 18.6818C13.2158 18.2569 12.7202 17.653 12.4275 16.9465C12.1349 16.2399 12.0583 15.4625 12.2075 14.7124C12.3567 13.9623 12.7249 13.2734 13.2657 12.7326C13.8065 12.1918 14.4954 11.8236 15.2455 11.6744C15.9956 11.5252 16.773 11.6018 17.4796 11.8944C18.1861 12.1871 18.79 12.6827 19.2149 13.3186C19.6397 13.9544 19.8665 14.702 19.8665 15.4668C19.8665 16.4923 19.4591 17.4758 18.734 18.2009C18.0089 18.926 17.0254 19.3334 15.9999 19.3334Z" fill="white"/>
</svg>
