<svg width="12" height="15" viewBox="0 0 12 15" fill="none" xmlns="http://www.w3.org/2000/svg">
<path fill-rule="evenodd" clip-rule="evenodd" d="M8 2.76172C8 3.86839 7.10667 4.76172 6 4.76172C4.89333 4.76172 4 3.86839 4 2.76172C4 1.65505 4.89333 0.761719 6 0.761719C7.10667 0.761719 8 1.65505 8 2.76172ZM1.54667 4.89505C3.25333 5.20172 4.78667 5.99505 6 7.12839C7.21333 5.99505 8.74667 5.20172 10.4533 4.89505C11.26 4.75505 12 5.39505 12 6.21505V10.8284C12 11.4684 11.4867 12.0884 10.86 12.1751C9.18 12.3884 7.65333 13.0884 6.40667 14.1084C6.17333 14.2951 5.79333 14.2751 5.56 14.0817C4.32 13.0684 2.80667 12.3817 1.14 12.1684C0.48 12.0817 0 11.4951 0 10.3751V6.21505C0 5.39505 0.74 4.75505 1.54667 4.89505Z" fill="white"/>
</svg>
