<svg width="31" height="31" viewBox="0 0 31 31" fill="none" xmlns="http://www.w3.org/2000/svg">
<path d="M15.5335 1.93311C12.3959 1.95447 9.36327 3.06538 6.95433 5.07577C4.54538 7.08617 2.90983 9.87114 2.32746 12.9542C1.7451 16.0374 2.25211 19.227 3.76176 21.9776C5.27141 24.7282 7.68989 26.8687 10.6035 28.0331C10.4077 26.7517 10.4077 25.4479 10.6035 24.1664L12.1985 17.3998C11.9461 16.7869 11.8211 16.1291 11.8311 15.4664C11.8311 13.5911 12.9235 12.1798 14.2768 12.1798C14.522 12.1761 14.765 12.2254 14.9894 12.3244C15.2137 12.4234 15.4139 12.5698 15.5764 12.7534C15.7389 12.937 15.8598 13.1536 15.9308 13.3883C16.0018 13.6229 16.0213 13.8702 15.9878 14.1131C15.9878 15.2731 15.2531 17.0131 14.8665 18.6178C14.7833 18.917 14.7734 19.2319 14.8376 19.5358C14.9019 19.8397 15.0384 20.1236 15.2357 20.3636C15.433 20.6035 15.6851 20.7924 15.9709 20.9142C16.2566 21.036 16.5674 21.0872 16.8771 21.0634C19.2745 21.0634 21.1305 18.5211 21.1305 14.8671C21.1546 14.1246 21.0237 13.3852 20.7461 12.6961C20.4685 12.007 20.0503 11.3834 19.5182 10.8649C18.9861 10.3465 18.3518 9.94463 17.6557 9.68502C16.9597 9.42541 16.2171 9.31373 15.4755 9.35711C14.6837 9.3231 13.8932 9.45011 13.1519 9.73045C12.4106 10.0108 11.7339 10.4386 11.1628 10.9881C10.5917 11.5375 10.1379 12.1972 9.82912 12.9271C9.5203 13.657 9.3628 14.4419 9.36615 15.2344C9.3554 16.3385 9.69372 17.4178 10.3328 18.3181C10.3793 18.3698 10.4124 18.432 10.4292 18.4994C10.4461 18.5668 10.4462 18.6373 10.4295 18.7048C10.3231 19.1301 10.0911 20.0581 10.0525 20.2418C10.0138 20.4254 9.84948 20.5414 9.59815 20.4254C7.90648 19.6328 6.85281 17.1678 6.85281 15.1764C6.85281 10.9134 9.95581 6.98877 15.7945 6.98877C20.4828 6.98877 24.1368 10.3334 24.1368 14.8091C24.1368 19.4684 21.2368 23.2191 17.1091 23.2191C16.504 23.2402 15.9032 23.1097 15.3613 22.8396C14.8194 22.5695 14.3536 22.1683 14.0061 21.6724L13.1651 24.8914C12.762 26.1424 12.1965 27.3352 11.4831 28.4391C12.7976 28.8276 14.1629 29.0166 15.5335 28.9998C19.1227 28.9998 22.565 27.5739 25.103 25.0359C27.641 22.498 29.0668 19.0557 29.0668 15.4664C29.0668 11.8772 27.641 8.43492 25.103 5.89693C22.565 3.35893 19.1227 1.93311 15.5335 1.93311Z" fill="white"/>
</svg>
