<svg width="31" height="31" viewBox="0 0 31 31" fill="none" xmlns="http://www.w3.org/2000/svg">
<path d="M11.5228 24.1086C13.1557 24.1188 14.7743 23.8048 16.2848 23.1847C17.7954 22.5646 19.1677 21.6507 20.3223 20.4961C21.4769 19.3415 22.3908 17.9691 23.0109 16.4586C23.6311 14.948 23.9451 13.3294 23.9348 11.6966C23.9348 11.5032 23.9348 11.3196 23.9348 11.1262C24.7812 10.5061 25.5138 9.74407 26.1002 8.87391C25.3032 9.22248 24.4598 9.45367 23.5965 9.56024C24.5118 9.01483 25.1986 8.15632 25.5298 7.14358C24.6768 7.65537 23.7413 8.01516 22.7652 8.20691C22.1078 7.50643 21.2378 7.04213 20.29 6.88585C19.3421 6.72957 18.3692 6.89002 17.5217 7.34237C16.6742 7.79473 15.9995 8.51378 15.6018 9.38825C15.2041 10.2627 15.1057 11.2439 15.3218 12.1799C13.5877 12.0948 11.8909 11.6454 10.3419 10.8609C8.79296 10.0764 7.42661 8.97452 6.33183 7.62691C5.77979 8.58504 5.61246 9.71716 5.86373 10.794C6.115 11.8709 6.76609 12.812 7.68516 13.4269C7.00715 13.4008 6.34483 13.2153 5.75183 12.8856V12.9339C5.7458 13.9352 6.08313 14.9083 6.70758 15.6911C7.33203 16.4739 8.20588 17.019 9.1835 17.2356C8.55288 17.4052 7.89231 17.4316 7.25016 17.3129C7.53319 18.1668 8.07346 18.9123 8.79687 19.4471C9.52029 19.9819 10.3914 20.2798 11.2908 20.2999C9.75307 21.5377 7.84185 22.2191 5.86783 22.2332C5.52172 22.2232 5.17642 22.1942 4.8335 22.1462C6.83155 23.4192 9.15373 24.0904 11.5228 24.0796" fill="white"/>
</svg>
