<svg width="24" height="24" viewBox="0 0 24 24" fill="none" xmlns="http://www.w3.org/2000/svg">
<path d="M17.25 15C16.6886 15.0029 16.135 15.1317 15.6301 15.377C15.1251 15.6224 14.6817 15.9779 14.3325 16.4175L8.85002 12.99C9.04983 12.3452 9.04983 11.6549 8.85002 11.01L14.3325 7.58253C14.889 8.27157 15.6714 8.74141 16.5411 8.90884C17.4108 9.07626 18.3117 8.93045 19.0842 8.49725C19.8567 8.06404 20.4509 7.3714 20.7616 6.54202C21.0723 5.71263 21.0794 4.80004 20.7817 3.96591C20.484 3.13177 19.9007 2.42993 19.135 1.9847C18.3694 1.53948 17.4709 1.37962 16.5987 1.53343C15.7265 1.68725 14.9368 2.14481 14.3697 2.82507C13.8025 3.50533 13.4944 4.36437 13.5 5.25003C13.5036 5.58541 13.554 5.91865 13.65 6.24003L8.16752 9.66753C7.6835 9.05822 7.02192 8.61457 6.27448 8.39808C5.52704 8.18159 4.73076 8.20298 3.99602 8.45929C3.26129 8.7156 2.62448 9.19413 2.17388 9.82856C1.72328 10.463 1.4812 11.2219 1.4812 12C1.4812 12.7782 1.72328 13.5371 2.17388 14.1715C2.62448 14.8059 3.26129 15.2845 3.99602 15.5408C4.73076 15.7971 5.52704 15.8185 6.27448 15.602C7.02192 15.3855 7.6835 14.9418 8.16752 14.3325L13.65 17.76C13.554 18.0814 13.5036 18.4146 13.5 18.75C13.5 19.4917 13.7199 20.2167 14.132 20.8334C14.5441 21.4501 15.1297 21.9307 15.8149 22.2146C16.5002 22.4984 17.2542 22.5727 17.9816 22.428C18.709 22.2833 19.3772 21.9261 19.9017 21.4017C20.4261 20.8772 20.7833 20.209 20.928 19.4816C21.0727 18.7542 20.9984 18.0002 20.7146 17.315C20.4307 16.6297 19.9501 16.0441 19.3334 15.632C18.7167 15.22 17.9917 15 17.25 15ZM17.25 3.00003C17.695 3.00003 18.13 3.13199 18.5 3.37922C18.8701 3.62646 19.1584 3.97786 19.3287 4.38899C19.499 4.80013 19.5436 5.25253 19.4568 5.68898C19.37 6.12544 19.1557 6.52635 18.841 6.84102C18.5263 7.15569 18.1254 7.36998 17.689 7.4568C17.2525 7.54361 16.8001 7.49906 16.389 7.32876C15.9778 7.15846 15.6264 6.87007 15.3792 6.50006C15.132 6.13005 15 5.69504 15 5.25003C15 4.65329 15.2371 4.081 15.659 3.65904C16.081 3.23708 16.6533 3.00003 17.25 3.00003ZM5.25002 14.25C4.80501 14.25 4.36999 14.1181 3.99998 13.8708C3.62997 13.6236 3.34158 13.2722 3.17129 12.8611C3.00099 12.4499 2.95643 11.9975 3.04325 11.5611C3.13007 11.1246 3.34436 10.7237 3.65903 10.409C3.97369 10.0944 4.37461 9.88008 4.81106 9.79326C5.24752 9.70645 5.69992 9.751 6.11105 9.9213C6.52219 10.0916 6.87359 10.38 7.12082 10.75C7.36805 11.12 7.50001 11.555 7.50001 12C7.50001 12.5968 7.26296 13.1691 6.84101 13.591C6.41905 14.013 5.84675 14.25 5.25002 14.25ZM17.25 21C16.805 21 16.37 20.8681 16 20.6208C15.63 20.3736 15.3416 20.0222 15.1713 19.6111C15.001 19.1999 14.9564 18.7475 15.0432 18.3111C15.1301 17.8746 15.3444 17.4737 15.659 17.159C15.9737 16.8444 16.3746 16.6301 16.8111 16.5433C17.2475 16.4564 17.6999 16.501 18.111 16.6713C18.5222 16.8416 18.8736 17.13 19.1208 17.5C19.3681 17.87 19.5 18.305 19.5 18.75C19.5 19.3468 19.263 19.9191 18.841 20.341C18.419 20.763 17.8468 21 17.25 21Z" fill="black"/>
</svg>
