<svg width="32" height="31" viewBox="0 0 32 31" fill="none" xmlns="http://www.w3.org/2000/svg">
<path d="M26.1362 3.86673H6.39684C5.94707 3.86403 5.51412 4.03754 5.19071 4.35011C4.8673 4.66268 4.67913 5.08947 4.6665 5.53906V25.3267C4.67666 25.7771 4.86405 26.2054 5.18801 26.5185C5.51196 26.8316 5.94634 27.0043 6.39684 26.9991H26.1362C26.5867 27.0043 27.021 26.8316 27.345 26.5185C27.669 26.2054 27.8564 25.7771 27.8665 25.3267V5.53906C27.8539 5.08947 27.6657 4.66268 27.3423 4.35011C27.0189 4.03754 26.5859 3.86403 26.1362 3.86673ZM11.5395 23.5964H8.13684V12.5667H11.5395V23.5964ZM9.87684 11.0297C9.35441 11.0299 8.85264 10.8257 8.47873 10.4608C8.10483 10.096 7.88846 9.59934 7.87584 9.07706C7.86638 8.81174 7.91166 8.54732 8.00887 8.30026C8.10609 8.05321 8.25314 7.82883 8.44087 7.6411C8.6286 7.45337 8.85298 7.30631 9.10004 7.2091C9.34709 7.11189 9.61152 7.0666 9.87684 7.07606C10.3823 7.11126 10.8555 7.33686 11.2011 7.70734C11.5467 8.07782 11.7388 8.56559 11.7388 9.07223C11.7388 9.57887 11.5467 10.0666 11.2011 10.4371C10.8555 10.8076 10.3823 11.0332 9.87684 11.0684V11.0297ZM24.4638 23.5287H21.0998V18.1347C21.0998 16.8491 21.0998 15.1767 19.3018 15.1767C17.5038 15.1767 17.2332 16.5881 17.2332 18.0091V23.4707H13.7918V12.5667H17.0012V14.0167H17.0688C17.3978 13.4455 17.8774 12.9756 18.4554 12.6585C19.0333 12.3414 19.6873 12.1893 20.3458 12.2187C23.8162 12.2187 24.4638 14.5387 24.4638 17.4871V23.5287Z" fill="white"/>
</svg>
