<svg width="16" height="17" viewBox="0 0 16 17" fill="none" xmlns="http://www.w3.org/2000/svg">
<path fill-rule="evenodd" clip-rule="evenodd" d="M3.3335 6.67668C3.3335 4.09668 5.42016 2.01001 8.00016 2.01001C10.5802 2.01001 12.6668 4.09668 12.6668 6.67668C12.6668 9.45668 9.72016 13.29 8.5135 14.75C8.24683 15.07 7.76016 15.07 7.4935 14.75C6.28016 13.29 3.3335 9.45668 3.3335 6.67668ZM6.3335 6.67668C6.3335 7.59668 7.08016 8.34334 8.00016 8.34334C8.92016 8.34334 9.66683 7.59668 9.66683 6.67668C9.66683 5.75668 8.92016 5.01001 8.00016 5.01001C7.08016 5.01001 6.3335 5.75668 6.3335 6.67668Z" fill="#ffffff"/>
</svg>
