<svg width="14" height="14" viewBox="0 0 14 14" fill="none" xmlns="http://www.w3.org/2000/svg">
<path d="M9.16482 9.74002L10.2848 8.62002C10.4357 8.47104 10.6265 8.36906 10.8342 8.32646C11.0419 8.28385 11.2575 8.30246 11.4548 8.38002L12.8198 8.92502C13.0192 9.00596 13.1902 9.14411 13.3112 9.32207C13.4322 9.50003 13.4979 9.70983 13.4998 9.92502V12.425C13.4987 12.5714 13.4679 12.7161 13.4094 12.8502C13.3508 12.9844 13.2657 13.1054 13.1592 13.2058C13.0527 13.3062 12.927 13.3841 12.7896 13.4346C12.6522 13.4852 12.506 13.5074 12.3598 13.5C2.79482 12.905 0.864823 4.80502 0.499823 1.70502C0.482879 1.55279 0.49836 1.39869 0.545247 1.25288C0.592134 1.10706 0.669364 0.972817 0.771856 0.858988C0.874349 0.74516 0.999781 0.654323 1.1399 0.592452C1.28002 0.530582 1.43165 0.49908 1.58482 0.50002H3.99982C4.21533 0.500658 4.42571 0.565754 4.60392 0.686935C4.78213 0.808116 4.92001 0.97984 4.99982 1.18002L5.54482 2.54502C5.62495 2.74155 5.64539 2.95734 5.6036 3.16543C5.5618 3.37351 5.45962 3.56467 5.30982 3.71502L4.18982 4.83502C4.18982 4.83502 4.83482 9.20002 9.16482 9.74002Z" fill="white"/>
</svg>
